<svg version="1.1" viewBox="0.0 0.0 600.0 371.0" fill="none" stroke="none" stroke-linecap="square" stroke-miterlimit="10" width="600" height="371" xmlns:xlink="http://www.w3.org/1999/xlink" xmlns="http://www.w3.org/2000/svg"><path fill="#ffffff" d="M0 0L600.0 0L600.0 371.0L0 371.0L0 0Z" fill-rule="nonzero"/><path fill="#ff00ff" d="M300.0 54.916668C331.41644 54.916668 362.02643 64.86246 387.44284 83.328575L300.0 203.68333Z" fill-rule="nonzero"/><path fill="#b4a7d6" d="M387.44284 83.328575C412.85928 101.794685 431.77728 127.8331 441.4855 157.7119L300.0 203.68333Z" fill-rule="nonzero"/><path fill="#d5a6bd" d="M441.4855 157.7119C466.87482 235.85219 424.11172 319.7795 345.97144 345.16885L300.0 203.68333Z" fill-rule="nonzero"/><path fill="#9900ff" d="M158.5145 157.7119C178.43053 96.416664 235.55037 54.916668 300.0 54.916668L300.0 203.68333Z" fill-rule="nonzero"/><path fill="#351c75" d="M151.23334 203.68333C151.23334 188.07242 153.69044 172.55878 158.5145 157.7119L300.0 203.68333Z" fill-rule="nonzero"/><path fill="#a64d79" d="M212.55714 324.0381C174.03099 296.0472 151.23334 251.30429 151.23334 203.68333L300.0 203.68333Z" fill-rule="nonzero"/><path fill="#8e7cc3" d="M345.97144 345.16885C300.6812 359.88452 251.08331 352.029 212.55714 324.0381L300.0 203.68333Z" fill-rule="nonzero"/><path fill="#1a1a1a" d="M19.096874 82.08069L20.159374 81.98694Q20.2375 82.64319 20.51875 83.04944Q20.8 83.45569 21.378124 83.72131Q21.971874 83.97131 22.70625 83.97131Q23.346874 83.97131 23.846874 83.78381Q24.346874 83.58069 24.58125 83.25256Q24.83125 82.90881 24.83125 82.51819Q24.83125 82.11194 24.596874 81.81506Q24.3625 81.50256 23.83125 81.29944Q23.471874 81.15881 22.284374 80.87756Q21.1125 80.59631 20.64375 80.34631Q20.01875 80.01819 19.721874 79.54944Q19.425 79.06506 19.425 78.47131Q19.425 77.83069 19.784374 77.26819Q20.159374 76.69006 20.8625 76.40881Q21.58125 76.11194 22.440624 76.11194Q23.39375 76.11194 24.128124 76.42444Q24.8625 76.72131 25.253124 77.33069Q25.64375 77.92444 25.675 78.67444L24.58125 78.75256Q24.4875 77.94006 23.971874 77.53381Q23.471874 77.11194 22.4875 77.11194Q21.45625 77.11194 20.9875 77.48694Q20.51875 77.86194 20.51875 78.39319Q20.51875 78.86194 20.846874 79.15881Q21.175 79.45569 22.55 79.76819Q23.940624 80.08069 24.45625 80.31506Q25.20625 80.67444 25.565624 81.20569Q25.925 81.72131 25.925 82.42444Q25.925 83.11194 25.534374 83.72131Q25.14375 84.31506 24.409374 84.65881Q23.675 84.98694 22.753124 84.98694Q21.58125 84.98694 20.784374 84.65881Q20.003124 84.31506 19.55 83.62756Q19.1125 82.94006 19.096874 82.08069ZM31.409374 82.56506L32.440624 82.70569Q32.26875 83.76819 31.565624 84.37756Q30.8625 84.98694 29.846874 84.98694Q28.565624 84.98694 27.784374 84.15881Q27.01875 83.31506 27.01875 81.75256Q27.01875 80.75256 27.346874 80.00256Q27.690624 79.23694 28.3625 78.86194Q29.05 78.48694 29.8625 78.48694Q30.8625 78.48694 31.503124 79.00256Q32.159374 79.50256 32.346874 80.45569L31.315624 80.61194Q31.175 79.98694 30.8 79.67444Q30.425 79.34631 29.89375 79.34631Q29.096874 79.34631 28.596874 79.92444Q28.096874 80.48694 28.096874 81.72131Q28.096874 82.98694 28.58125 83.54944Q29.065624 84.11194 29.83125 84.11194Q30.45625 84.11194 30.8625 83.73694Q31.284374 83.36194 31.409374 82.56506ZM33.346874 84.84631L33.346874 76.25256L34.39375 76.25256L34.39375 79.33069Q35.128124 78.48694 36.253124 78.48694Q36.95625 78.48694 37.45625 78.76819Q37.971874 79.03381 38.190624 79.51819Q38.409374 79.98694 38.409374 80.90881L38.409374 84.84631L37.3625 84.84631L37.3625 80.90881Q37.3625 80.11194 37.01875 79.75256Q36.675 79.39319 36.05 79.39319Q35.58125 79.39319 35.159374 79.64319Q34.753124 79.87756 34.565624 80.29944Q34.39375 80.70569 34.39375 81.44006L34.39375 84.84631L33.346874 84.84631ZM39.95625 81.73694Q39.95625 80.00256 40.909374 79.17444Q41.70625 78.48694 42.8625 78.48694Q44.14375 78.48694 44.95625 79.33069Q45.784374 80.15881 45.784374 81.64319Q45.784374 82.84631 45.425 83.53381Q45.065624 84.22131 44.3625 84.61194Q43.675 84.98694 42.8625 84.98694Q41.565624 84.98694 40.753124 84.15881Q39.95625 83.31506 39.95625 81.73694ZM41.034374 81.73694Q41.034374 82.92444 41.55 83.51819Q42.08125 84.11194 42.8625 84.11194Q43.659374 84.11194 44.175 83.51819Q44.690624 82.92444 44.690624 81.70569Q44.690624 80.54944 44.159374 79.95569Q43.64375 79.36194 42.8625 79.36194Q42.08125 79.36194 41.55 79.95569Q41.034374 80.53381 41.034374 81.73694ZM46.95625 81.73694Q46.95625 80.00256 47.909374 79.17444Q48.70625 78.48694 49.8625 78.48694Q51.14375 78.48694 51.95625 79.33069Q52.784374 80.15881 52.784374 81.64319Q52.784374 82.84631 52.425 83.53381Q52.065624 84.22131 51.3625 84.61194Q50.675 84.98694 49.8625 84.98694Q48.565624 84.98694 47.753124 84.15881Q46.95625 83.31506 46.95625 81.73694ZM48.034374 81.73694Q48.034374 82.92444 48.55 83.51819Q49.08125 84.11194 49.8625 84.11194Q50.659374 84.11194 51.175 83.51819Q51.690624 82.92444 51.690624 81.70569Q51.690624 80.54944 51.159374 79.95569Q50.64375 79.36194 49.8625 79.36194Q49.08125 79.36194 48.55 79.95569Q48.034374 80.53381 48.034374 81.73694ZM54.315624 84.84631L54.315624 76.25256L55.378124 76.25256L55.378124 84.84631L54.315624 84.84631Z" fill-rule="nonzero"/><path fill="#9e9e9e" d="M24.596874 100.83069L24.596874 101.84631L18.909374 101.84631Q18.909374 101.47131 19.034374 101.11194Q19.253124 100.53381 19.721874 99.97131Q20.20625 99.40881 21.1125 98.67444Q22.51875 97.51819 23.003124 96.84631Q23.503124 96.17444 23.503124 95.58069Q23.503124 94.95569 23.05 94.53381Q22.596874 94.09631 21.878124 94.09631Q21.1125 94.09631 20.659374 94.54944Q20.20625 95.00256 20.190624 95.81506L19.1125 95.70569Q19.221874 94.48694 19.940624 93.86194Q20.675 93.22131 21.909374 93.22131Q23.14375 93.22131 23.8625 93.90881Q24.58125 94.59631 24.58125 95.61194Q24.58125 96.12756 24.3625 96.62756Q24.159374 97.11194 23.659374 97.67444Q23.175 98.22131 22.05 99.17444Q21.096874 99.97131 20.815624 100.26819Q20.55 100.54944 20.378124 100.83069L24.596874 100.83069ZM26.05 97.61194Q26.05 96.08069 26.3625 95.15881Q26.675 94.22131 27.284374 93.72131Q27.909374 93.22131 28.846874 93.22131Q29.534374 93.22131 30.05 93.50256Q30.58125 93.78381 30.925 94.31506Q31.26875 94.83069 31.45625 95.58069Q31.64375 96.33069 31.64375 97.61194Q31.64375 99.12756 31.33125 100.04944Q31.034374 100.97131 30.409374 101.48694Q29.8 101.98694 28.846874 101.98694Q27.6125 101.98694 26.89375 101.09631Q26.05 100.03381 26.05 97.61194ZM27.128124 97.61194Q27.128124 99.72131 27.628124 100.42444Q28.128124 101.12756 28.846874 101.12756Q29.58125 101.12756 30.065624 100.42444Q30.565624 99.72131 30.565624 97.61194Q30.565624 95.48694 30.065624 94.79944Q29.58125 94.09631 28.83125 94.09631Q28.1125 94.09631 27.675 94.70569Q27.128124 95.48694 27.128124 97.61194ZM33.64375 101.84631L33.64375 100.64319L34.846874 100.64319L34.846874 101.84631L33.64375 101.84631ZM36.05 97.61194Q36.05 96.08069 36.3625 95.15881Q36.675 94.22131 37.284374 93.72131Q37.909374 93.22131 38.846874 93.22131Q39.534374 93.22131 40.05 93.50256Q40.58125 93.78381 40.925 94.31506Q41.26875 94.83069 41.45625 95.58069Q41.64375 96.33069 41.64375 97.61194Q41.64375 99.12756 41.33125 100.04944Q41.034374 100.97131 40.409374 101.48694Q39.8 101.98694 38.846874 101.98694Q37.6125 101.98694 36.89375 101.09631Q36.05 100.03381 36.05 97.61194ZM37.128124 97.61194Q37.128124 99.72131 37.628124 100.42444Q38.128124 101.12756 38.846874 101.12756Q39.58125 101.12756 40.065624 100.42444Q40.565624 99.72131 40.565624 97.61194Q40.565624 95.48694 40.065624 94.79944Q39.58125 94.09631 38.83125 94.09631Q38.1125 94.09631 37.675 94.70569Q37.128124 95.48694 37.128124 97.61194ZM43.253124 95.31506Q43.253124 94.39319 43.70625 93.75256Q44.175 93.11194 45.05 93.11194Q45.8625 93.11194 46.39375 93.69006Q46.925 94.26819 46.925 95.37756Q46.925 96.47131 46.378124 97.06506Q45.846874 97.64319 45.065624 97.64319Q44.284374 97.64319 43.76875 97.06506Q43.253124 96.48694 43.253124 95.31506ZM45.08125 93.83069Q44.690624 93.83069 44.425 94.17444Q44.175 94.51819 44.175 95.42444Q44.175 96.25256 44.425 96.59631Q44.690624 96.92444 45.08125 96.92444Q45.4875 96.92444 45.7375 96.58069Q46.003124 96.23694 46.003124 95.34631Q46.003124 94.50256 45.7375 94.17444Q45.471874 93.83069 45.08125 93.83069ZM45.08125 102.15881L49.784374 93.11194L50.64375 93.11194L45.95625 102.15881L45.08125 102.15881ZM48.8 99.83069Q48.8 98.90881 49.253124 98.26819Q49.721874 97.62756 50.6125 97.62756Q51.425 97.62756 51.95625 98.20569Q52.4875 98.76819 52.4875 99.89319Q52.4875 100.98694 51.940624 101.58069Q51.409374 102.15881 50.6125 102.15881Q49.846874 102.15881 49.315624 101.58069Q48.8 101.00256 48.8 99.83069ZM50.64375 98.34631Q50.2375 98.34631 49.971874 98.69006Q49.721874 99.03381 49.721874 99.94006Q49.721874 100.75256 49.9875 101.09631Q50.253124 101.44006 50.64375 101.44006Q51.034374 101.44006 51.3 101.09631Q51.565624 100.75256 51.565624 99.84631Q51.565624 99.01819 51.3 98.69006Q51.034374 98.34631 50.64375 98.34631Z" fill-rule="nonzero"/><path stroke="#757575" stroke-width="1.0" stroke-linecap="butt" d="M18.55 89.34631L145.23334 89.34631L216.92929 89.34631" fill-rule="nonzero"/><path fill="#9e9e9e" d="M218.92929 89.34631C218.92929 88.24174 218.03386 87.34631 216.92929 87.34631C215.82472 87.34631 214.92929 88.24174 214.92929 89.34631C214.92929 90.45088 215.82472 91.34631 216.92929 91.34631C218.03386 91.34631 218.92929 90.45088 218.92929 89.34631" fill-rule="nonzero"/><path fill="#1a1a1a" d="M19.4875 177.0747L19.4875 168.48096L23.3 168.48096Q24.45625 168.48096 25.05 168.71533Q25.64375 168.9497 26.003124 169.54346Q26.3625 170.12158 26.3625 170.8247Q26.3625 171.74658 25.76875 172.37158Q25.175 172.99658 23.940624 173.16846Q24.39375 173.3872 24.628124 173.59033Q25.128124 174.04346 25.565624 174.73096L27.065624 177.0747L25.628124 177.0747L24.503124 175.29346Q24.003124 174.5122 23.675 174.10596Q23.3625 173.6997 23.096874 173.54346Q22.846874 173.37158 22.58125 173.29346Q22.39375 173.2622 21.95625 173.2622L20.628124 173.2622L20.628124 177.0747L19.4875 177.0747ZM20.628124 172.27783L23.08125 172.27783Q23.846874 172.27783 24.284374 172.12158Q24.7375 171.9497 24.95625 171.60596Q25.190624 171.24658 25.190624 170.8247Q25.190624 170.21533 24.7375 169.8247Q24.3 169.43408 23.346874 169.43408L20.628124 169.43408L20.628124 172.27783ZM32.596874 175.0747L33.690624 175.1997Q33.440624 176.15283 32.7375 176.68408Q32.034374 177.21533 30.95625 177.21533Q29.596874 177.21533 28.784374 176.37158Q27.9875 175.52783 27.9875 174.0122Q27.9875 172.4497 28.8 171.59033Q29.6125 170.71533 30.89375 170.71533Q32.14375 170.71533 32.925 171.55908Q33.721874 172.40283 33.721874 173.9497Q33.721874 174.04346 33.721874 174.23096L29.08125 174.23096Q29.14375 175.2622 29.659374 175.80908Q30.175 176.34033 30.95625 176.34033Q31.534374 176.34033 31.940624 176.04346Q32.3625 175.73096 32.596874 175.0747ZM29.14375 173.37158L32.6125 173.37158Q32.55 172.5747 32.221874 172.18408Q31.70625 171.5747 30.909374 171.5747Q30.175 171.5747 29.675 172.05908Q29.190624 172.54346 29.14375 173.37158ZM35.315624 177.0747L35.315624 168.48096L36.378124 168.48096L36.378124 177.0747L35.315624 177.0747ZM42.409374 176.30908Q41.815624 176.80908 41.26875 177.0122Q40.7375 177.21533 40.1125 177.21533Q39.08125 177.21533 38.534374 176.71533Q37.9875 176.21533 37.9875 175.43408Q37.9875 174.98096 38.190624 174.60596Q38.39375 174.21533 38.7375 173.99658Q39.08125 173.7622 39.503124 173.65283Q39.8 173.55908 40.440624 173.48096Q41.70625 173.34033 42.315624 173.12158Q42.315624 172.90283 42.315624 172.85596Q42.315624 172.1997 42.01875 171.93408Q41.6125 171.59033 40.815624 171.59033Q40.08125 171.59033 39.721874 171.85596Q39.3625 172.10596 39.190624 172.7622L38.159374 172.62158Q38.3 171.96533 38.628124 171.55908Q38.95625 171.15283 39.565624 170.93408Q40.175 170.71533 40.971874 170.71533Q41.76875 170.71533 42.26875 170.90283Q42.76875 171.09033 43.003124 171.37158Q43.2375 171.65283 43.33125 172.09033Q43.378124 172.35596 43.378124 173.05908L43.378124 174.46533Q43.378124 175.93408 43.440624 176.3247Q43.51875 176.71533 43.721874 177.0747L42.6125 177.0747Q42.45625 176.74658 42.409374 176.30908ZM42.315624 173.9497Q41.7375 174.18408 40.596874 174.35596Q39.940624 174.4497 39.675 174.5747Q39.409374 174.68408 39.253124 174.90283Q39.1125 175.12158 39.1125 175.40283Q39.1125 175.8247 39.425 176.10596Q39.753124 176.3872 40.3625 176.3872Q40.971874 176.3872 41.440624 176.12158Q41.925 175.85596 42.14375 175.3872Q42.315624 175.02783 42.315624 174.34033L42.315624 173.9497ZM44.64375 177.0747L46.909374 173.84033L44.815624 170.85596L46.128124 170.85596L47.08125 172.30908Q47.346874 172.73096 47.51875 173.0122Q47.76875 172.62158 47.9875 172.3247L49.034374 170.85596L50.3 170.85596L48.14375 173.77783L50.45625 177.0747L49.175 177.0747L47.89375 175.1372L47.55 174.62158L45.909374 177.0747L44.64375 177.0747ZM50.346874 169.6997L50.346874 168.48096L51.409374 168.48096L51.409374 169.6997L50.346874 169.6997ZM50.346874 177.0747L50.346874 170.85596L51.409374 170.85596L51.409374 177.0747L50.346874 177.0747ZM53.346874 177.0747L53.346874 170.85596L54.284374 170.85596L54.284374 171.73096Q54.971874 170.71533 56.26875 170.71533Q56.83125 170.71533 57.3 170.91846Q57.784374 171.12158 58.01875 171.4497Q58.253124 171.77783 58.346874 172.21533Q58.39375 172.5122 58.39375 173.24658L58.39375 177.0747L57.346874 177.0747L57.346874 173.29346Q57.346874 172.6372 57.221874 172.3247Q57.096874 172.0122 56.784374 171.8247Q56.471874 171.62158 56.05 171.62158Q55.378124 171.62158 54.878124 172.05908Q54.39375 172.48096 54.39375 173.66846L54.39375 177.0747L53.346874 177.0747ZM60.14375 177.59033L61.175 177.74658Q61.2375 178.21533 61.534374 178.43408Q61.925 178.73096 62.596874 178.73096Q63.33125 178.73096 63.721874 178.43408Q64.12813 178.1372 64.26875 177.62158Q64.3625 177.29346 64.34688 176.2622Q63.659374 177.0747 62.628124 177.0747Q61.346874 177.0747 60.64375 176.15283Q59.940624 175.21533 59.940624 173.93408Q59.940624 173.04346 60.253124 172.29346Q60.58125 171.52783 61.190624 171.12158Q61.8 170.71533 62.628124 170.71533Q63.7375 170.71533 64.45625 171.60596L64.45625 170.85596L65.425 170.85596L65.425 176.23096Q65.425 177.68408 65.12813 178.29346Q64.83125 178.90283 64.19063 179.24658Q63.55 179.60596 62.6125 179.60596Q61.503124 179.60596 60.815624 179.10596Q60.128124 178.60596 60.14375 177.59033ZM61.01875 173.85596Q61.01875 175.0747 61.503124 175.6372Q61.9875 176.1997 62.721874 176.1997Q63.45625 176.1997 63.940624 175.6372Q64.44063 175.0747 64.44063 173.8872Q64.44063 172.74658 63.925 172.16846Q63.425 171.59033 62.70625 171.59033Q62.003124 171.59033 61.503124 172.16846Q61.01875 172.73096 61.01875 173.85596Z" fill-rule="nonzero"/><path fill="#9e9e9e" d="M19.05 191.8247L20.159374 191.73096Q20.284374 192.54346 20.721874 192.9497Q21.175 193.35596 21.815624 193.35596Q22.565624 193.35596 23.096874 192.77783Q23.628124 192.1997 23.628124 191.2622Q23.628124 190.35596 23.1125 189.84033Q22.6125 189.30908 21.784374 189.30908Q21.284374 189.30908 20.8625 189.54346Q20.45625 189.77783 20.221874 190.1372L19.2375 190.0122L20.065624 185.60596L24.346874 185.60596L24.346874 186.60596L20.909374 186.60596L20.45625 188.91846Q21.221874 188.37158 22.065624 188.37158Q23.190624 188.37158 23.95625 189.15283Q24.7375 189.93408 24.7375 191.16846Q24.7375 192.3247 24.065624 193.18408Q23.2375 194.21533 21.815624 194.21533Q20.64375 194.21533 19.89375 193.55908Q19.159374 192.90283 19.05 191.8247ZM26.64375 194.0747L26.64375 192.87158L27.846874 192.87158L27.846874 194.0747L26.64375 194.0747ZM29.05 189.84033Q29.05 188.30908 29.3625 187.3872Q29.675 186.4497 30.284374 185.9497Q30.909374 185.4497 31.846874 185.4497Q32.534374 185.4497 33.05 185.73096Q33.58125 186.0122 33.925 186.54346Q34.26875 187.05908 34.45625 187.80908Q34.64375 188.55908 34.64375 189.84033Q34.64375 191.35596 34.33125 192.27783Q34.034374 193.1997 33.409374 193.71533Q32.8 194.21533 31.846874 194.21533Q30.6125 194.21533 29.89375 193.3247Q29.05 192.2622 29.05 189.84033ZM30.128124 189.84033Q30.128124 191.9497 30.628124 192.65283Q31.128124 193.35596 31.846874 193.35596Q32.58125 193.35596 33.065624 192.65283Q33.565624 191.9497 33.565624 189.84033Q33.565624 187.71533 33.065624 187.02783Q32.58125 186.3247 31.83125 186.3247Q31.1125 186.3247 30.675 186.93408Q30.128124 187.71533 30.128124 189.84033ZM36.253124 187.54346Q36.253124 186.62158 36.70625 185.98096Q37.175 185.34033 38.05 185.34033Q38.8625 185.34033 39.39375 185.91846Q39.925 186.49658 39.925 187.60596Q39.925 188.6997 39.378124 189.29346Q38.846874 189.87158 38.065624 189.87158Q37.284374 189.87158 36.76875 189.29346Q36.253124 188.71533 36.253124 187.54346ZM38.08125 186.05908Q37.690624 186.05908 37.425 186.40283Q37.175 186.74658 37.175 187.65283Q37.175 188.48096 37.425 188.8247Q37.690624 189.15283 38.08125 189.15283Q38.4875 189.15283 38.7375 188.80908Q39.003124 188.46533 39.003124 187.5747Q39.003124 186.73096 38.7375 186.40283Q38.471874 186.05908 38.08125 186.05908ZM38.08125 194.3872L42.784374 185.34033L43.64375 185.34033L38.95625 194.3872L38.08125 194.3872ZM41.8 192.05908Q41.8 191.1372 42.253124 190.49658Q42.721874 189.85596 43.6125 189.85596Q44.425 189.85596 44.95625 190.43408Q45.4875 190.99658 45.4875 192.12158Q45.4875 193.21533 44.940624 193.80908Q44.409374 194.3872 43.6125 194.3872Q42.846874 194.3872 42.315624 193.80908Q41.8 193.23096 41.8 192.05908ZM43.64375 190.5747Q43.2375 190.5747 42.971874 190.91846Q42.721874 191.2622 42.721874 192.16846Q42.721874 192.98096 42.9875 193.3247Q43.253124 193.66846 43.64375 193.66846Q44.034374 193.66846 44.3 193.3247Q44.565624 192.98096 44.565624 192.0747Q44.565624 191.24658 44.3 190.91846Q44.034374 190.5747 43.64375 190.5747Z" fill-rule="nonzero"/><path stroke="#757575" stroke-width="1.0" stroke-linecap="butt" d="M18.55 181.5747L145.23334 181.5747L160.41165 181.5747" fill-rule="nonzero"/><path fill="#9e9e9e" d="M162.41165 181.5747C162.41165 180.47014 161.51622 179.5747 160.41165 179.5747C159.30708 179.5747 158.41165 180.47014 158.41165 181.5747C158.41165 182.67928 159.30708 183.5747 160.41165 183.5747C161.51622 183.5747 162.41165 182.67928 162.41165 181.5747" fill-rule="nonzero"/><path fill="#1a1a1a" d="M20.971874 263.34506L18.690624 254.75131L19.8625 254.75131L21.175 260.39194Q21.378124 261.26694 21.534374 262.14194Q21.8625 260.76694 21.925 260.5482L23.55 254.75131L24.925 254.75131L26.159374 259.09506Q26.6125 260.72006 26.83125 262.14194Q26.9875 261.32944 27.253124 260.26694L28.596874 254.75131L29.7375 254.75131L27.39375 263.34506L26.284374 263.34506L24.4875 256.7982Q24.253124 255.98569 24.20625 255.79819Q24.08125 256.3763 23.95625 256.7982L22.14375 263.34506L20.971874 263.34506ZM29.95625 260.2357Q29.95625 258.5013 30.909374 257.6732Q31.70625 256.9857 32.8625 256.9857Q34.14375 256.9857 34.95625 257.82944Q35.784374 258.65756 35.784374 260.14194Q35.784374 261.34506 35.425 262.03256Q35.065624 262.72006 34.3625 263.1107Q33.675 263.4857 32.8625 263.4857Q31.565624 263.4857 30.753124 262.65756Q29.95625 261.8138 29.95625 260.2357ZM31.034374 260.2357Q31.034374 261.4232 31.55 262.01694Q32.08125 262.6107 32.8625 262.6107Q33.659374 262.6107 34.175 262.01694Q34.690624 261.4232 34.690624 260.20444Q34.690624 259.0482 34.159374 258.45444Q33.64375 257.8607 32.8625 257.8607Q32.08125 257.8607 31.55 258.45444Q31.034374 259.03256 31.034374 260.2357ZM37.33125 263.34506L37.33125 257.1263L38.284374 257.1263L38.284374 258.0638Q38.64375 257.40756 38.940624 257.20444Q39.253124 256.9857 39.628124 256.9857Q40.159374 256.9857 40.70625 257.3138L40.346874 258.2982Q39.95625 258.0638 39.58125 258.0638Q39.221874 258.0638 38.940624 258.28256Q38.675 258.4857 38.565624 258.8607Q38.378124 259.4232 38.378124 260.07944L38.378124 263.34506L37.33125 263.34506ZM41.346874 263.34506L41.346874 254.75131L42.409374 254.75131L42.409374 259.65756L44.89375 257.1263L46.26875 257.1263L43.878124 259.4232L46.503124 263.34506L45.20625 263.34506L43.14375 260.15756L42.409374 260.8763L42.409374 263.34506L41.346874 263.34506Z" fill-rule="nonzero"/><path fill="#9e9e9e" d="M23.01875 280.34506L21.971874 280.34506L21.971874 273.6263Q21.58125 273.9857 20.95625 274.3607Q20.346874 274.72006 19.8625 274.89194L19.8625 273.8763Q20.7375 273.45444 21.39375 272.8763Q22.065624 272.28256 22.346874 271.72006L23.01875 271.72006L23.01875 280.34506ZM26.05 278.09506L27.159374 278.0013Q27.284374 278.8138 27.721874 279.22006Q28.175 279.6263 28.815624 279.6263Q29.565624 279.6263 30.096874 279.0482Q30.628124 278.47006 30.628124 277.53256Q30.628124 276.6263 30.1125 276.1107Q29.6125 275.57944 28.784374 275.57944Q28.284374 275.57944 27.8625 275.8138Q27.45625 276.0482 27.221874 276.40756L26.2375 276.28256L27.065624 271.8763L31.346874 271.8763L31.346874 272.8763L27.909374 272.8763L27.45625 275.1888Q28.221874 274.64194 29.065624 274.64194Q30.190624 274.64194 30.95625 275.4232Q31.7375 276.20444 31.7375 277.4388Q31.7375 278.59506 31.065624 279.45444Q30.2375 280.4857 28.815624 280.4857Q27.64375 280.4857 26.89375 279.82944Q26.159374 279.1732 26.05 278.09506ZM33.64375 280.34506L33.64375 279.14194L34.846874 279.14194L34.846874 280.34506L33.64375 280.34506ZM36.05 276.1107Q36.05 274.57944 36.3625 273.65756Q36.675 272.72006 37.284374 272.22006Q37.909374 271.72006 38.846874 271.72006Q39.534374 271.72006 40.05 272.0013Q40.58125 272.28256 40.925 272.8138Q41.26875 273.32944 41.45625 274.07944Q41.64375 274.82944 41.64375 276.1107Q41.64375 277.6263 41.33125 278.5482Q41.034374 279.47006 40.409374 279.9857Q39.8 280.4857 38.846874 280.4857Q37.6125 280.4857 36.89375 279.59506Q36.05 278.53256 36.05 276.1107ZM37.128124 276.1107Q37.128124 278.22006 37.628124 278.9232Q38.128124 279.6263 38.846874 279.6263Q39.58125 279.6263 40.065624 278.9232Q40.565624 278.22006 40.565624 276.1107Q40.565624 273.9857 40.065624 273.2982Q39.58125 272.59506 38.83125 272.59506Q38.1125 272.59506 37.675 273.20444Q37.128124 273.9857 37.128124 276.1107ZM43.253124 273.8138Q43.253124 272.89194 43.70625 272.2513Q44.175 271.6107 45.05 271.6107Q45.8625 271.6107 46.39375 272.1888Q46.925 272.76694 46.925 273.8763Q46.925 274.97006 46.378124 275.5638Q45.846874 276.14194 45.065624 276.14194Q44.284374 276.14194 43.76875 275.5638Q43.253124 274.9857 43.253124 273.8138ZM45.08125 272.32944Q44.690624 272.32944 44.425 272.6732Q44.175 273.01694 44.175 273.9232Q44.175 274.7513 44.425 275.09506Q44.690624 275.4232 45.08125 275.4232Q45.4875 275.4232 45.7375 275.07944Q46.003124 274.7357 46.003124 273.84506Q46.003124 273.0013 45.7375 272.6732Q45.471874 272.32944 45.08125 272.32944ZM45.08125 280.65756L49.784374 271.6107L50.64375 271.6107L45.95625 280.65756L45.08125 280.65756ZM48.8 278.32944Q48.8 277.40756 49.253124 276.76694Q49.721874 276.1263 50.6125 276.1263Q51.425 276.1263 51.95625 276.70444Q52.4875 277.26694 52.4875 278.39194Q52.4875 279.4857 51.940624 280.07944Q51.409374 280.65756 50.6125 280.65756Q49.846874 280.65756 49.315624 280.07944Q48.8 279.5013 48.8 278.32944ZM50.64375 276.84506Q50.2375 276.84506 49.971874 277.1888Q49.721874 277.53256 49.721874 278.4388Q49.721874 279.2513 49.9875 279.59506Q50.253124 279.9388 50.64375 279.9388Q51.034374 279.9388 51.3 279.59506Q51.565624 279.2513 51.565624 278.34506Q51.565624 277.51694 51.3 277.1888Q51.034374 276.84506 50.64375 276.84506Z" fill-rule="nonzero"/><path stroke="#757575" stroke-width="1.0" stroke-linecap="butt" d="M18.55 267.84506L145.23334 267.84506L174.07553 267.84506" fill-rule="nonzero"/><path fill="#9e9e9e" d="M176.07553 267.84506C176.07553 266.74048 175.1801 265.84506 174.07553 265.84506C172.97096 265.84506 172.07553 266.74048 172.07553 267.84506C172.07553 268.94962 172.97096 269.84506 174.07553 269.84506C175.1801 269.84506 176.07553 268.94962 176.07553 267.84506" fill-rule="nonzero"/><path fill="#1a1a1a" d="M19.096874 329.6844L20.159374 329.59064Q20.2375 330.2469 20.51875 330.65314Q20.8 331.0594 21.378124 331.325Q21.971874 331.575 22.70625 331.575Q23.346874 331.575 23.846874 331.3875Q24.346874 331.1844 24.58125 330.85626Q24.83125 330.5125 24.83125 330.1219Q24.83125 329.71564 24.596874 329.41876Q24.3625 329.10626 23.83125 328.90314Q23.471874 328.7625 22.284374 328.48126Q21.1125 328.2 20.64375 327.95Q20.01875 327.6219 19.721874 327.15314Q19.425 326.66876 19.425 326.075Q19.425 325.4344 19.784374 324.8719Q20.159374 324.29376 20.8625 324.0125Q21.58125 323.71564 22.440624 323.71564Q23.39375 323.71564 24.128124 324.02814Q24.8625 324.325 25.253124 324.9344Q25.64375 325.52814 25.675 326.27814L24.58125 326.35626Q24.4875 325.54376 23.971874 325.1375Q23.471874 324.71564 22.4875 324.71564Q21.45625 324.71564 20.9875 325.09064Q20.51875 325.46564 20.51875 325.9969Q20.51875 326.46564 20.846874 326.7625Q21.175 327.0594 22.55 327.3719Q23.940624 327.6844 24.45625 327.91876Q25.20625 328.27814 25.565624 328.8094Q25.925 329.325 25.925 330.02814Q25.925 330.71564 25.534374 331.325Q25.14375 331.91876 24.409374 332.2625Q23.675 332.59064 22.753124 332.59064Q21.58125 332.59064 20.784374 332.2625Q20.003124 331.91876 19.55 331.23126Q19.1125 330.54376 19.096874 329.6844ZM26.95625 329.34064Q26.95625 327.60626 27.909374 326.77814Q28.70625 326.09064 29.8625 326.09064Q31.14375 326.09064 31.95625 326.9344Q32.784374 327.7625 32.784374 329.2469Q32.784374 330.45 32.425 331.1375Q32.065624 331.825 31.3625 332.21564Q30.675 332.59064 29.8625 332.59064Q28.565624 332.59064 27.753124 331.7625Q26.95625 330.91876 26.95625 329.34064ZM28.034374 329.34064Q28.034374 330.52814 28.55 331.1219Q29.08125 331.71564 29.8625 331.71564Q30.659374 331.71564 31.175 331.1219Q31.690624 330.52814 31.690624 329.3094Q31.690624 328.15314 31.159374 327.5594Q30.64375 326.96564 29.8625 326.96564Q29.08125 326.96564 28.55 327.5594Q28.034374 328.1375 28.034374 329.34064ZM38.409374 330.16876L39.440624 330.3094Q39.26875 331.3719 38.565624 331.98126Q37.8625 332.59064 36.846874 332.59064Q35.565624 332.59064 34.784374 331.7625Q34.01875 330.91876 34.01875 329.35626Q34.01875 328.35626 34.346874 327.60626Q34.690624 326.84064 35.3625 326.46564Q36.05 326.09064 36.8625 326.09064Q37.8625 326.09064 38.503124 326.60626Q39.159374 327.10626 39.346874 328.0594L38.315624 328.21564Q38.175 327.59064 37.8 327.27814Q37.425 326.95 36.89375 326.95Q36.096874 326.95 35.596874 327.52814Q35.096874 328.09064 35.096874 329.325Q35.096874 330.59064 35.58125 331.15314Q36.065624 331.71564 36.83125 331.71564Q37.45625 331.71564 37.8625 331.34064Q38.284374 330.96564 38.409374 330.16876ZM40.346874 325.075L40.346874 323.85626L41.409374 323.85626L41.409374 325.075L40.346874 325.075ZM40.346874 332.45L40.346874 326.23126L41.409374 326.23126L41.409374 332.45L40.346874 332.45ZM47.409374 331.6844Q46.815624 332.1844 46.26875 332.3875Q45.7375 332.59064 45.1125 332.59064Q44.08125 332.59064 43.534374 332.09064Q42.9875 331.59064 42.9875 330.8094Q42.9875 330.35626 43.190624 329.98126Q43.39375 329.59064 43.7375 329.3719Q44.08125 329.1375 44.503124 329.02814Q44.8 328.9344 45.440624 328.85626Q46.70625 328.71564 47.315624 328.4969Q47.315624 328.27814 47.315624 328.23126Q47.315624 327.575 47.01875 327.3094Q46.6125 326.96564 45.815624 326.96564Q45.08125 326.96564 44.721874 327.23126Q44.3625 327.48126 44.190624 328.1375L43.159374 327.9969Q43.3 327.34064 43.628124 326.9344Q43.95625 326.52814 44.565624 326.3094Q45.175 326.09064 45.971874 326.09064Q46.76875 326.09064 47.26875 326.27814Q47.76875 326.46564 48.003124 326.7469Q48.2375 327.02814 48.33125 327.46564Q48.378124 327.73126 48.378124 328.4344L48.378124 329.84064Q48.378124 331.3094 48.440624 331.7Q48.51875 332.09064 48.721874 332.45L47.6125 332.45Q47.45625 332.1219 47.409374 331.6844ZM47.315624 329.325Q46.7375 329.5594 45.596874 329.73126Q44.940624 329.825 44.675 329.95Q44.409374 330.0594 44.253124 330.27814Q44.1125 330.4969 44.1125 330.77814Q44.1125 331.2 44.425 331.48126Q44.753124 331.7625 45.3625 331.7625Q45.971874 331.7625 46.440624 331.4969Q46.925 331.23126 47.14375 330.7625Q47.315624 330.40314 47.315624 329.71564L47.315624 329.325ZM50.315624 332.45L50.315624 323.85626L51.378124 323.85626L51.378124 332.45L50.315624 332.45ZM53.346874 325.075L53.346874 323.85626L54.409374 323.85626L54.409374 325.075L53.346874 325.075ZM53.346874 332.45L53.346874 326.23126L54.409374 326.23126L54.409374 332.45L53.346874 332.45ZM55.784374 332.45L55.784374 331.59064L59.753124 327.04376Q59.065624 327.075 58.55 327.075L56.01875 327.075L56.01875 326.23126L61.1125 326.23126L61.1125 326.91876L57.7375 330.8719L57.08125 331.59064Q57.8 331.54376 58.409374 331.54376L61.3 331.54376L61.3 332.45L55.784374 332.45ZM61.346874 325.075L61.346874 323.85626L62.409374 323.85626L62.409374 325.075L61.346874 325.075ZM61.346874 332.45L61.346874 326.23126L62.409374 326.23126L62.409374 332.45L61.346874 332.45ZM64.34688 332.45L64.34688 326.23126L65.28438 326.23126L65.28438 327.10626Q65.97188 326.09064 67.26875 326.09064Q67.83125 326.09064 68.3 326.29376Q68.78438 326.4969 69.01875 326.825Q69.25313 327.15314 69.34688 327.59064Q69.39375 327.8875 69.39375 328.6219L69.39375 332.45L68.34688 332.45L68.34688 328.66876Q68.34688 328.0125 68.22188 327.7Q68.09688 327.3875 67.78438 327.2Q67.47188 326.9969 67.05 326.9969Q66.37813 326.9969 65.87813 327.4344Q65.39375 327.85626 65.39375 329.04376L65.39375 332.45L64.34688 332.45ZM71.14375 332.96564L72.175 333.1219Q72.2375 333.59064 72.53438 333.8094Q72.925 334.10626 73.59688 334.10626Q74.33125 334.10626 74.72188 333.8094Q75.12813 333.5125 75.26875 332.9969Q75.3625 332.66876 75.34688 331.6375Q74.65938 332.45 73.62813 332.45Q72.34688 332.45 71.64375 331.52814Q70.94063 330.59064 70.94063 329.3094Q70.94063 328.41876 71.25313 327.66876Q71.58125 326.90314 72.19063 326.4969Q72.8 326.09064 73.62813 326.09064Q74.7375 326.09064 75.45625 326.98126L75.45625 326.23126L76.425 326.23126L76.425 331.60626Q76.425 333.0594 76.12813 333.66876Q75.83125 334.27814 75.19063 334.6219Q74.55 334.98126 73.6125 334.98126Q72.50313 334.98126 71.81563 334.48126Q71.12813 333.98126 71.14375 332.96564ZM72.01875 329.23126Q72.01875 330.45 72.50313 331.0125Q72.9875 331.575 73.72188 331.575Q74.45625 331.575 74.94063 331.0125Q75.44063 330.45 75.44063 329.2625Q75.44063 328.1219 74.925 327.54376Q74.425 326.96564 73.70625 326.96564Q73.00313 326.96564 72.50313 327.54376Q72.01875 328.10626 72.01875 329.23126Z" fill-rule="nonzero"/><path fill="#9e9e9e" d="M23.01875 349.45L21.971874 349.45L21.971874 342.73126Q21.58125 343.09064 20.95625 343.46564Q20.346874 343.825 19.8625 343.9969L19.8625 342.98126Q20.7375 342.5594 21.39375 341.98126Q22.065624 341.3875 22.346874 340.825L23.01875 340.825L23.01875 349.45ZM26.05 347.2L27.159374 347.10626Q27.284374 347.91876 27.721874 348.325Q28.175 348.73126 28.815624 348.73126Q29.565624 348.73126 30.096874 348.15314Q30.628124 347.575 30.628124 346.6375Q30.628124 345.73126 30.1125 345.21564Q29.6125 344.6844 28.784374 344.6844Q28.284374 344.6844 27.8625 344.91876Q27.45625 345.15314 27.221874 345.5125L26.2375 345.3875L27.065624 340.98126L31.346874 340.98126L31.346874 341.98126L27.909374 341.98126L27.45625 344.29376Q28.221874 343.7469 29.065624 343.7469Q30.190624 343.7469 30.95625 344.52814Q31.7375 345.3094 31.7375 346.54376Q31.7375 347.7 31.065624 348.5594Q30.2375 349.59064 28.815624 349.59064Q27.64375 349.59064 26.89375 348.9344Q26.159374 348.27814 26.05 347.2ZM33.64375 349.45L33.64375 348.2469L34.846874 348.2469L34.846874 349.45L33.64375 349.45ZM36.05 345.21564Q36.05 343.6844 36.3625 342.7625Q36.675 341.825 37.284374 341.325Q37.909374 340.825 38.846874 340.825Q39.534374 340.825 40.05 341.10626Q40.58125 341.3875 40.925 341.91876Q41.26875 342.4344 41.45625 343.1844Q41.64375 343.9344 41.64375 345.21564Q41.64375 346.73126 41.33125 347.65314Q41.034374 348.575 40.409374 349.09064Q39.8 349.59064 38.846874 349.59064Q37.6125 349.59064 36.89375 348.7Q36.05 347.6375 36.05 345.21564ZM37.128124 345.21564Q37.128124 347.325 37.628124 348.02814Q38.128124 348.73126 38.846874 348.73126Q39.58125 348.73126 40.065624 348.02814Q40.565624 347.325 40.565624 345.21564Q40.565624 343.09064 40.065624 342.40314Q39.58125 341.7 38.83125 341.7Q38.1125 341.7 37.675 342.3094Q37.128124 343.09064 37.128124 345.21564ZM43.253124 342.91876Q43.253124 341.9969 43.70625 341.35626Q44.175 340.71564 45.05 340.71564Q45.8625 340.71564 46.39375 341.29376Q46.925 341.8719 46.925 342.98126Q46.925 344.075 46.378124 344.66876Q45.846874 345.2469 45.065624 345.2469Q44.284374 345.2469 43.76875 344.66876Q43.253124 344.09064 43.253124 342.91876ZM45.08125 341.4344Q44.690624 341.4344 44.425 341.77814Q44.175 342.1219 44.175 343.02814Q44.175 343.85626 44.425 344.2Q44.690624 344.52814 45.08125 344.52814Q45.4875 344.52814 45.7375 344.1844Q46.003124 343.84064 46.003124 342.95Q46.003124 342.10626 45.7375 341.77814Q45.471874 341.4344 45.08125 341.4344ZM45.08125 349.7625L49.784374 340.71564L50.64375 340.71564L45.95625 349.7625L45.08125 349.7625ZM48.8 347.4344Q48.8 346.5125 49.253124 345.8719Q49.721874 345.23126 50.6125 345.23126Q51.425 345.23126 51.95625 345.8094Q52.4875 346.3719 52.4875 347.4969Q52.4875 348.59064 51.940624 349.1844Q51.409374 349.7625 50.6125 349.7625Q49.846874 349.7625 49.315624 349.1844Q48.8 348.60626 48.8 347.4344ZM50.64375 345.95Q50.2375 345.95 49.971874 346.29376Q49.721874 346.6375 49.721874 347.54376Q49.721874 348.35626 49.9875 348.7Q50.253124 349.04376 50.64375 349.04376Q51.034374 349.04376 51.3 348.7Q51.565624 348.35626 51.565624 347.45Q51.565624 346.6219 51.3 346.29376Q51.034374 345.95 50.64375 345.95Z" fill-rule="nonzero"/><path stroke="#757575" stroke-width="1.0" stroke-linecap="butt" d="M18.55 336.95L145.23334 336.95L277.8914 343.27167" fill-rule="nonzero"/><path fill="#9e9e9e" d="M279.8914 343.27167C279.8914 342.1671 278.99594 341.27167 277.8914 341.27167C276.7868 341.27167 275.8914 342.1671 275.8914 343.27167C275.8914 344.37625 276.7868 345.27167 277.8914 345.27167C278.99594 345.27167 279.8914 344.37625 279.8914 343.27167" fill-rule="nonzero"/><path fill="#1a1a1a" d="M558.4344 65.916664L561.73126 57.322914L562.95 57.322914L566.46564 65.916664L565.1844 65.916664L564.16876 63.30729L560.59064 63.30729L559.6375 65.916664L558.4344 65.916664ZM560.91876 62.385414L563.825 62.385414L562.9344 60.010414Q562.5125 58.93229 562.325 58.229164Q562.15314 59.05729 561.85626 59.86979L560.91876 62.385414ZM566.3719 65.916664L566.3719 57.322914L569.34064 57.322914Q570.34064 57.322914 570.8719 57.447914Q571.60626 57.61979 572.1219 58.05729Q572.8094 58.635414 573.1375 59.541664Q573.48126 60.43229 573.48126 61.572914Q573.48126 62.55729 573.2469 63.30729Q573.02814 64.05729 572.66876 64.55729Q572.3094 65.05729 571.8719 65.33854Q571.45 65.61979 570.85626 65.77604Q570.2625 65.916664 569.48126 65.916664L566.3719 65.916664ZM567.5125 64.90104L569.34064 64.90104Q570.2 64.90104 570.6844 64.74479Q571.16876 64.58854 571.45 64.291664Q571.85626 63.90104 572.075 63.21354Q572.3094 62.52604 572.3094 61.55729Q572.3094 60.21354 571.85626 59.49479Q571.41876 58.760414 570.79376 58.510414Q570.325 58.33854 569.325 58.33854L567.5125 58.33854L567.5125 64.90104ZM575.325 65.916664L575.325 57.322914L576.46564 57.322914L576.46564 64.90104L580.7 64.90104L580.7 65.916664L575.325 65.916664Z" fill-rule="nonzero"/><path fill="#9e9e9e" d="M550.91876 82.916664L549.8719 82.916664L549.8719 76.197914Q549.48126 76.55729 548.85626 76.93229Q548.2469 77.291664 547.7625 77.46354L547.7625 76.447914Q548.6375 76.02604 549.29376 75.447914Q549.96564 74.854164 550.2469 74.291664L550.91876 74.291664L550.91876 82.916664ZM553.95 78.68229Q553.95 77.15104 554.2625 76.229164Q554.575 75.291664 555.1844 74.791664Q555.8094 74.291664 556.7469 74.291664Q557.4344 74.291664 557.95 74.572914Q558.48126 74.854164 558.825 75.385414Q559.16876 75.90104 559.35626 76.65104Q559.54376 77.40104 559.54376 78.68229Q559.54376 80.197914 559.23126 81.11979Q558.9344 82.041664 558.3094 82.55729Q557.7 83.05729 556.7469 83.05729Q555.5125 83.05729 554.79376 82.166664Q553.95 81.104164 553.95 78.68229ZM555.02814 78.68229Q555.02814 80.791664 555.52814 81.49479Q556.02814 82.197914 556.7469 82.197914Q557.48126 82.197914 557.96564 81.49479Q558.46564 80.791664 558.46564 78.68229Q558.46564 76.55729 557.96564 75.86979Q557.48126 75.166664 556.73126 75.166664Q556.0125 75.166664 555.575 75.77604Q555.02814 76.55729 555.02814 78.68229ZM561.54376 82.916664L561.54376 81.71354L562.7469 81.71354L562.7469 82.916664L561.54376 82.916664ZM563.95 78.68229Q563.95 77.15104 564.2625 76.229164Q564.575 75.291664 565.1844 74.791664Q565.8094 74.291664 566.7469 74.291664Q567.4344 74.291664 567.95 74.572914Q568.48126 74.854164 568.825 75.385414Q569.16876 75.90104 569.35626 76.65104Q569.54376 77.40104 569.54376 78.68229Q569.54376 80.197914 569.23126 81.11979Q568.9344 82.041664 568.3094 82.55729Q567.7 83.05729 566.7469 83.05729Q565.5125 83.05729 564.79376 82.166664Q563.95 81.104164 563.95 78.68229ZM565.02814 78.68229Q565.02814 80.791664 565.52814 81.49479Q566.02814 82.197914 566.7469 82.197914Q567.48126 82.197914 567.96564 81.49479Q568.46564 80.791664 568.46564 78.68229Q568.46564 76.55729 567.96564 75.86979Q567.48126 75.166664 566.73126 75.166664Q566.0125 75.166664 565.575 75.77604Q565.02814 76.55729 565.02814 78.68229ZM571.15314 76.385414Q571.15314 75.46354 571.60626 74.822914Q572.075 74.18229 572.95 74.18229Q573.7625 74.18229 574.29376 74.760414Q574.825 75.33854 574.825 76.447914Q574.825 77.541664 574.27814 78.135414Q573.7469 78.71354 572.96564 78.71354Q572.1844 78.71354 571.66876 78.135414Q571.15314 77.55729 571.15314 76.385414ZM572.98126 74.90104Q572.59064 74.90104 572.325 75.24479Q572.075 75.58854 572.075 76.49479Q572.075 77.322914 572.325 77.666664Q572.59064 77.99479 572.98126 77.99479Q573.3875 77.99479 573.6375 77.65104Q573.90314 77.30729 573.90314 76.416664Q573.90314 75.572914 573.6375 75.24479Q573.3719 74.90104 572.98126 74.90104ZM572.98126 83.229164L577.6844 74.18229L578.54376 74.18229L573.85626 83.229164L572.98126 83.229164ZM576.7 80.90104Q576.7 79.979164 577.15314 79.33854Q577.6219 78.697914 578.5125 78.697914Q579.325 78.697914 579.85626 79.27604Q580.3875 79.83854 580.3875 80.96354Q580.3875 82.05729 579.84064 82.65104Q579.3094 83.229164 578.5125 83.229164Q577.7469 83.229164 577.21564 82.65104Q576.7 82.072914 576.7 80.90104ZM578.54376 79.416664Q578.1375 79.416664 577.8719 79.760414Q577.6219 80.104164 577.6219 81.010414Q577.6219 81.822914 577.8875 82.166664Q578.15314 82.510414 578.54376 82.510414Q578.9344 82.510414 579.2 82.166664Q579.46564 81.822914 579.46564 80.916664Q579.46564 80.08854 579.2 79.760414Q578.9344 79.416664 578.54376 79.416664Z" fill-rule="nonzero"/><path stroke="#757575" stroke-width="1.0" stroke-linecap="butt" d="M581.45 70.416664L454.76666 70.416664L343.67285 69.2721" fill-rule="nonzero"/><path fill="#9e9e9e" d="M345.67285 69.2721C345.67285 68.167534 344.77744 67.2721 343.67285 67.2721C342.5683 67.2721 341.67285 68.167534 341.67285 69.2721C341.67285 70.37667 342.5683 71.2721 343.67285 71.2721C344.77744 71.2721 345.67285 70.37667 345.67285 69.2721" fill-rule="nonzero"/><path fill="#1a1a1a" d="M533.9969 113.347L535.0594 113.25325Q535.1375 113.9095 535.41876 114.31575Q535.7 114.722 536.27814 114.987625Q536.8719 115.237625 537.60626 115.237625Q538.2469 115.237625 538.7469 115.050125Q539.2469 114.847 539.48126 114.518875Q539.73126 114.175125 539.73126 113.7845Q539.73126 113.37825 539.4969 113.081375Q539.2625 112.768875 538.73126 112.56575Q538.3719 112.425125 537.1844 112.143875Q536.0125 111.862625 535.54376 111.612625Q534.91876 111.2845 534.6219 110.81575Q534.325 110.331375 534.325 109.737625Q534.325 109.097 534.6844 108.5345Q535.0594 107.956375 535.7625 107.675125Q536.48126 107.37825 537.34064 107.37825Q538.29376 107.37825 539.02814 107.69075Q539.7625 107.987625 540.15314 108.597Q540.54376 109.19075 540.575 109.94075L539.48126 110.018875Q539.3875 109.206375 538.8719 108.800125Q538.3719 108.37825 537.3875 108.37825Q536.35626 108.37825 535.8875 108.75325Q535.41876 109.12825 535.41876 109.6595Q535.41876 110.12825 535.7469 110.425125Q536.075 110.722 537.45 111.0345Q538.84064 111.347 539.35626 111.581375Q540.10626 111.94075 540.46564 112.472Q540.825 112.987625 540.825 113.69075Q540.825 114.37825 540.4344 114.987625Q540.04376 115.581375 539.3094 115.925125Q538.575 116.25325 537.65314 116.25325Q536.48126 116.25325 535.6844 115.925125Q534.90314 115.581375 534.45 114.893875Q534.0125 114.206375 533.9969 113.347ZM546.3094 113.831375L547.34064 113.972Q547.16876 115.0345 546.46564 115.643875Q545.7625 116.25325 544.7469 116.25325Q543.46564 116.25325 542.6844 115.425125Q541.91876 114.581375 541.91876 113.018875Q541.91876 112.018875 542.2469 111.268875Q542.59064 110.50325 543.2625 110.12825Q543.95 109.75325 544.7625 109.75325Q545.7625 109.75325 546.40314 110.268875Q547.0594 110.768875 547.2469 111.722L546.21564 111.87825Q546.075 111.25325 545.7 110.94075Q545.325 110.612625 544.79376 110.612625Q543.9969 110.612625 543.4969 111.19075Q542.9969 111.75325 542.9969 112.987625Q542.9969 114.25325 543.48126 114.81575Q543.96564 115.37825 544.73126 115.37825Q545.35626 115.37825 545.7625 115.00325Q546.1844 114.62825 546.3094 113.831375ZM548.23126 116.112625L548.23126 109.893875L549.1844 109.893875L549.1844 110.831375Q549.54376 110.175125 549.84064 109.972Q550.15314 109.75325 550.52814 109.75325Q551.0594 109.75325 551.60626 110.081375L551.2469 111.06575Q550.85626 110.831375 550.48126 110.831375Q550.1219 110.831375 549.84064 111.050125Q549.575 111.25325 549.46564 111.62825Q549.27814 112.19075 549.27814 112.847L549.27814 116.112625L548.23126 116.112625ZM551.85626 113.00325Q551.85626 111.268875 552.8094 110.44075Q553.60626 109.75325 554.7625 109.75325Q556.04376 109.75325 556.85626 110.597Q557.6844 111.425125 557.6844 112.9095Q557.6844 114.112625 557.325 114.800125Q556.96564 115.487625 556.2625 115.87825Q555.575 116.25325 554.7625 116.25325Q553.46564 116.25325 552.65314 115.425125Q551.85626 114.581375 551.85626 113.00325ZM552.9344 113.00325Q552.9344 114.19075 553.45 114.7845Q553.98126 115.37825 554.7625 115.37825Q555.5594 115.37825 556.075 114.7845Q556.59064 114.19075 556.59064 112.972Q556.59064 111.81575 556.0594 111.222Q555.54376 110.62825 554.7625 110.62825Q553.98126 110.62825 553.45 111.222Q552.9344 111.800125 552.9344 113.00325ZM559.21564 116.112625L559.21564 107.518875L560.27814 107.518875L560.27814 116.112625L559.21564 116.112625ZM562.21564 116.112625L562.21564 107.518875L563.27814 107.518875L563.27814 116.112625L562.21564 116.112625ZM565.2469 108.737625L565.2469 107.518875L566.3094 107.518875L566.3094 108.737625L565.2469 108.737625ZM565.2469 116.112625L565.2469 109.893875L566.3094 109.893875L566.3094 116.112625L565.2469 116.112625ZM568.2469 116.112625L568.2469 109.893875L569.1844 109.893875L569.1844 110.768875Q569.8719 109.75325 571.16876 109.75325Q571.73126 109.75325 572.2 109.956375Q572.6844 110.1595 572.91876 110.487625Q573.15314 110.81575 573.2469 111.25325Q573.29376 111.550125 573.29376 112.2845L573.29376 116.112625L572.2469 116.112625L572.2469 112.331375Q572.2469 111.675125 572.1219 111.362625Q571.9969 111.050125 571.6844 110.862625Q571.3719 110.6595 570.95 110.6595Q570.27814 110.6595 569.77814 111.097Q569.29376 111.518875 569.29376 112.706375L569.29376 116.112625L568.2469 116.112625ZM575.04376 116.62825L576.075 116.7845Q576.1375 117.25325 576.4344 117.472Q576.825 117.768875 577.4969 117.768875Q578.23126 117.768875 578.6219 117.472Q579.02814 117.175125 579.16876 116.6595Q579.2625 116.331375 579.2469 115.300125Q578.5594 116.112625 577.52814 116.112625Q576.2469 116.112625 575.54376 115.19075Q574.84064 114.25325 574.84064 112.972Q574.84064 112.081375 575.15314 111.331375Q575.48126 110.56575 576.09064 110.1595Q576.7 109.75325 577.52814 109.75325Q578.6375 109.75325 579.35626 110.643875L579.35626 109.893875L580.325 109.893875L580.325 115.268875Q580.325 116.722 580.02814 117.331375Q579.73126 117.94075 579.09064 118.2845Q578.45 118.643875 577.5125 118.643875Q576.40314 118.643875 575.71564 118.143875Q575.02814 117.643875 575.04376 116.62825ZM575.91876 112.893875Q575.91876 114.112625 576.40314 114.675125Q576.8875 115.237625 577.6219 115.237625Q578.35626 115.237625 578.84064 114.675125Q579.34064 114.112625 579.34064 112.925125Q579.34064 111.7845 578.825 111.206375Q578.325 110.62825 577.60626 110.62825Q576.90314 110.62825 576.40314 111.206375Q575.91876 111.768875 575.91876 112.893875Z" fill-rule="nonzero"/><path fill="#9e9e9e" d="M550.91876 133.11263L549.8719 133.11263L549.8719 126.393875Q549.48126 126.75325 548.85626 127.12825Q548.2469 127.487625 547.7625 127.6595L547.7625 126.643875Q548.6375 126.222 549.29376 125.643875Q549.96564 125.050125 550.2469 124.487625L550.91876 124.487625L550.91876 133.11263ZM553.95 128.87825Q553.95 127.347 554.2625 126.425125Q554.575 125.487625 555.1844 124.987625Q555.8094 124.487625 556.7469 124.487625Q557.4344 124.487625 557.95 124.768875Q558.48126 125.050125 558.825 125.581375Q559.16876 126.097 559.35626 126.847Q559.54376 127.597 559.54376 128.87825Q559.54376 130.39388 559.23126 131.31575Q558.9344 132.23763 558.3094 132.75325Q557.7 133.25325 556.7469 133.25325Q555.5125 133.25325 554.79376 132.36263Q553.95 131.30013 553.95 128.87825ZM555.02814 128.87825Q555.02814 130.98763 555.52814 131.69075Q556.02814 132.39388 556.7469 132.39388Q557.48126 132.39388 557.96564 131.69075Q558.46564 130.98763 558.46564 128.87825Q558.46564 126.75325 557.96564 126.06575Q557.48126 125.362625 556.73126 125.362625Q556.0125 125.362625 555.575 125.972Q555.02814 126.75325 555.02814 128.87825ZM561.54376 133.11263L561.54376 131.9095L562.7469 131.9095L562.7469 133.11263L561.54376 133.11263ZM563.95 128.87825Q563.95 127.347 564.2625 126.425125Q564.575 125.487625 565.1844 124.987625Q565.8094 124.487625 566.7469 124.487625Q567.4344 124.487625 567.95 124.768875Q568.48126 125.050125 568.825 125.581375Q569.16876 126.097 569.35626 126.847Q569.54376 127.597 569.54376 128.87825Q569.54376 130.39388 569.23126 131.31575Q568.9344 132.23763 568.3094 132.75325Q567.7 133.25325 566.7469 133.25325Q565.5125 133.25325 564.79376 132.36263Q563.95 131.30013 563.95 128.87825ZM565.02814 128.87825Q565.02814 130.98763 565.52814 131.69075Q566.02814 132.39388 566.7469 132.39388Q567.48126 132.39388 567.96564 131.69075Q568.46564 130.98763 568.46564 128.87825Q568.46564 126.75325 567.96564 126.06575Q567.48126 125.362625 566.73126 125.362625Q566.0125 125.362625 565.575 125.972Q565.02814 126.75325 565.02814 128.87825ZM571.15314 126.581375Q571.15314 125.6595 571.60626 125.018875Q572.075 124.37825 572.95 124.37825Q573.7625 124.37825 574.29376 124.956375Q574.825 125.5345 574.825 126.643875Q574.825 127.737625 574.27814 128.33138Q573.7469 128.9095 572.96564 128.9095Q572.1844 128.9095 571.66876 128.33138Q571.15314 127.75325 571.15314 126.581375ZM572.98126 125.097Q572.59064 125.097 572.325 125.44075Q572.075 125.7845 572.075 126.69075Q572.075 127.518875 572.325 127.862625Q572.59064 128.19075 572.98126 128.19075Q573.3875 128.19075 573.6375 127.847Q573.90314 127.50325 573.90314 126.612625Q573.90314 125.768875 573.6375 125.44075Q573.3719 125.097 572.98126 125.097ZM572.98126 133.42513L577.6844 124.37825L578.54376 124.37825L573.85626 133.42513L572.98126 133.42513ZM576.7 131.097Q576.7 130.17513 577.15314 129.5345Q577.6219 128.89388 578.5125 128.89388Q579.325 128.89388 579.85626 129.472Q580.3875 130.0345 580.3875 131.1595Q580.3875 132.25325 579.84064 132.847Q579.3094 133.42513 578.5125 133.42513Q577.7469 133.42513 577.21564 132.847Q576.7 132.26888 576.7 131.097ZM578.54376 129.61263Q578.1375 129.61263 577.8719 129.95638Q577.6219 130.30013 577.6219 131.20638Q577.6219 132.01888 577.8875 132.36263Q578.15314 132.70638 578.54376 132.70638Q578.9344 132.70638 579.2 132.36263Q579.46564 132.01888 579.46564 131.11263Q579.46564 130.2845 579.2 129.95638Q578.9344 129.61263 578.54376 129.61263Z" fill-rule="nonzero"/><path stroke="#757575" stroke-width="1.0" stroke-linecap="butt" d="M581.45 120.612625L454.76666 120.612625L414.33704 120.612625" fill-rule="nonzero"/><path fill="#9e9e9e" d="M416.33704 120.612625C416.33704 119.50806 415.4416 118.612625 414.33704 118.612625C413.23245 118.612625 412.33704 119.50806 412.33704 120.612625C412.33704 121.71719 413.23245 122.612625 414.33704 122.612625C415.4416 122.612625 416.33704 121.71719 416.33704 120.612625" fill-rule="nonzero"/><path fill="#1a1a1a" d="M555.5125 260.32944L556.6375 260.6263Q556.27814 262.01694 555.35626 262.7513Q554.4344 263.4857 553.09064 263.4857Q551.7 263.4857 550.825 262.9232Q549.95 262.3607 549.4969 261.2982Q549.04376 260.22006 549.04376 258.9857Q549.04376 257.64194 549.5594 256.64194Q550.075 255.64194 551.0125 255.12631Q551.96564 254.61069 553.10626 254.61069Q554.3875 254.61069 555.2625 255.26694Q556.15314 255.92319 556.4969 257.1107L555.3719 257.3763Q555.075 256.4388 554.4969 256.01694Q553.9344 255.57944 553.075 255.57944Q552.09064 255.57944 551.41876 256.0638Q550.7625 256.53256 550.48126 257.32944Q550.21564 258.1263 550.21564 258.9857Q550.21564 260.07944 550.52814 260.89194Q550.85626 261.70444 551.52814 262.1107Q552.2 262.51694 552.9969 262.51694Q553.95 262.51694 554.60626 261.97006Q555.27814 261.4232 555.5125 260.32944ZM558.21564 263.34506L558.21564 254.75131L559.27814 254.75131L559.27814 263.34506L558.21564 263.34506ZM565.325 263.34506L565.325 262.4232Q564.59064 263.4857 563.34064 263.4857Q562.79376 263.4857 562.3094 263.28256Q561.84064 263.0638 561.60626 262.7513Q561.3719 262.4232 561.27814 261.95444Q561.21564 261.65756 561.21564 260.97006L561.21564 257.1263L562.27814 257.1263L562.27814 260.57944Q562.27814 261.39194 562.34064 261.6888Q562.4344 262.09506 562.7469 262.34506Q563.075 262.57944 563.5594 262.57944Q564.02814 262.57944 564.4344 262.34506Q564.85626 262.09506 565.02814 261.6732Q565.21564 261.2513 565.21564 260.45444L565.21564 257.1263L566.2625 257.1263L566.2625 263.34506L565.325 263.34506ZM569.21564 263.34506L568.23126 263.34506L568.23126 254.75131L569.29376 254.75131L569.29376 257.8138Q569.96564 256.9857 570.9969 256.9857Q571.575 256.9857 572.075 257.22006Q572.59064 257.4388 572.91876 257.8607Q573.2625 258.28256 573.45 258.8763Q573.6375 259.47006 573.6375 260.14194Q573.6375 261.7357 572.84064 262.6107Q572.04376 263.4857 570.95 263.4857Q569.84064 263.4857 569.21564 262.5638L569.21564 263.34506ZM569.2 260.1888Q569.2 261.2982 569.5125 261.7982Q570.0125 262.6107 570.85626 262.6107Q571.54376 262.6107 572.04376 262.01694Q572.5594 261.4232 572.5594 260.22006Q572.5594 259.0013 572.075 258.4232Q571.59064 257.84506 570.90314 257.84506Q570.21564 257.84506 569.7 258.45444Q569.2 259.0482 569.2 260.1888ZM574.825 261.4857L575.85626 261.32944Q575.95 261.95444 576.34064 262.28256Q576.7469 262.6107 577.48126 262.6107Q578.2 262.6107 578.54376 262.32944Q578.90314 262.03256 578.90314 261.6263Q578.90314 261.26694 578.59064 261.0638Q578.3719 260.9232 577.5125 260.70444Q576.35626 260.40756 575.90314 260.20444Q575.46564 259.9857 575.23126 259.6107Q574.9969 259.2357 574.9969 258.76694Q574.9969 258.3607 575.1844 258.0013Q575.3719 257.64194 575.7 257.40756Q575.95 257.2357 576.3719 257.1107Q576.79376 256.9857 577.29376 256.9857Q578.0125 256.9857 578.5594 257.20444Q579.1219 257.40756 579.3875 257.76694Q579.65314 258.1263 579.7469 258.72006L578.71564 258.8607Q578.65314 258.39194 578.3094 258.1263Q577.98126 257.84506 577.35626 257.84506Q576.6375 257.84506 576.325 258.09506Q576.0125 258.32944 576.0125 258.65756Q576.0125 258.8607 576.1375 259.01694Q576.27814 259.1888 576.54376 259.2982Q576.7 259.3607 577.48126 259.5638Q578.60626 259.8763 579.04376 260.0638Q579.48126 260.2513 579.73126 260.6107Q579.98126 260.97006 579.98126 261.51694Q579.98126 262.0482 579.66876 262.51694Q579.3719 262.97006 578.79376 263.2357Q578.21564 263.4857 577.48126 263.4857Q576.2625 263.4857 575.6219 262.9857Q574.9969 262.47006 574.825 261.4857Z" fill-rule="nonzero"/><path fill="#9e9e9e" d="M552.4969 279.32944L552.4969 280.34506L546.8094 280.34506Q546.8094 279.97006 546.9344 279.6107Q547.15314 279.03256 547.6219 278.47006Q548.10626 277.90756 549.0125 277.1732Q550.41876 276.01694 550.90314 275.34506Q551.40314 274.6732 551.40314 274.07944Q551.40314 273.45444 550.95 273.03256Q550.4969 272.59506 549.77814 272.59506Q549.0125 272.59506 548.5594 273.0482Q548.10626 273.5013 548.09064 274.3138L547.0125 274.20444Q547.1219 272.9857 547.84064 272.3607Q548.575 271.72006 549.8094 271.72006Q551.04376 271.72006 551.7625 272.40756Q552.48126 273.09506 552.48126 274.1107Q552.48126 274.6263 552.2625 275.1263Q552.0594 275.6107 551.5594 276.1732Q551.075 276.72006 549.95 277.6732Q548.9969 278.47006 548.71564 278.76694Q548.45 279.0482 548.27814 279.32944L552.4969 279.32944ZM553.95 278.09506L555.0594 278.0013Q555.1844 278.8138 555.6219 279.22006Q556.075 279.6263 556.71564 279.6263Q557.46564 279.6263 557.9969 279.0482Q558.52814 278.47006 558.52814 277.53256Q558.52814 276.6263 558.0125 276.1107Q557.5125 275.57944 556.6844 275.57944Q556.1844 275.57944 555.7625 275.8138Q555.35626 276.0482 555.1219 276.40756L554.1375 276.28256L554.96564 271.8763L559.2469 271.8763L559.2469 272.8763L555.8094 272.8763L555.35626 275.1888Q556.1219 274.64194 556.96564 274.64194Q558.09064 274.64194 558.85626 275.4232Q559.6375 276.20444 559.6375 277.4388Q559.6375 278.59506 558.96564 279.45444Q558.1375 280.4857 556.71564 280.4857Q555.54376 280.4857 554.79376 279.82944Q554.0594 279.1732 553.95 278.09506ZM561.54376 280.34506L561.54376 279.14194L562.7469 279.14194L562.7469 280.34506L561.54376 280.34506ZM563.95 276.1107Q563.95 274.57944 564.2625 273.65756Q564.575 272.72006 565.1844 272.22006Q565.8094 271.72006 566.7469 271.72006Q567.4344 271.72006 567.95 272.0013Q568.48126 272.28256 568.825 272.8138Q569.16876 273.32944 569.35626 274.07944Q569.54376 274.82944 569.54376 276.1107Q569.54376 277.6263 569.23126 278.5482Q568.9344 279.47006 568.3094 279.9857Q567.7 280.4857 566.7469 280.4857Q565.5125 280.4857 564.79376 279.59506Q563.95 278.53256 563.95 276.1107ZM565.02814 276.1107Q565.02814 278.22006 565.52814 278.9232Q566.02814 279.6263 566.7469 279.6263Q567.48126 279.6263 567.96564 278.9232Q568.46564 278.22006 568.46564 276.1107Q568.46564 273.9857 567.96564 273.2982Q567.48126 272.59506 566.73126 272.59506Q566.0125 272.59506 565.575 273.20444Q565.02814 273.9857 565.02814 276.1107ZM571.15314 273.8138Q571.15314 272.89194 571.60626 272.2513Q572.075 271.6107 572.95 271.6107Q573.7625 271.6107 574.29376 272.1888Q574.825 272.76694 574.825 273.8763Q574.825 274.97006 574.27814 275.5638Q573.7469 276.14194 572.96564 276.14194Q572.1844 276.14194 571.66876 275.5638Q571.15314 274.9857 571.15314 273.8138ZM572.98126 272.32944Q572.59064 272.32944 572.325 272.6732Q572.075 273.01694 572.075 273.9232Q572.075 274.7513 572.325 275.09506Q572.59064 275.4232 572.98126 275.4232Q573.3875 275.4232 573.6375 275.07944Q573.90314 274.7357 573.90314 273.84506Q573.90314 273.0013 573.6375 272.6732Q573.3719 272.32944 572.98126 272.32944ZM572.98126 280.65756L577.6844 271.6107L578.54376 271.6107L573.85626 280.65756L572.98126 280.65756ZM576.7 278.32944Q576.7 277.40756 577.15314 276.76694Q577.6219 276.1263 578.5125 276.1263Q579.325 276.1263 579.85626 276.70444Q580.3875 277.26694 580.3875 278.39194Q580.3875 279.4857 579.84064 280.07944Q579.3094 280.65756 578.5125 280.65756Q577.7469 280.65756 577.21564 280.07944Q576.7 279.5013 576.7 278.32944ZM578.54376 276.84506Q578.1375 276.84506 577.8719 277.1888Q577.6219 277.53256 577.6219 278.4388Q577.6219 279.2513 577.8875 279.59506Q578.15314 279.9388 578.54376 279.9388Q578.9344 279.9388 579.2 279.59506Q579.46564 279.2513 579.46564 278.34506Q579.46564 277.51694 579.2 277.1888Q578.9344 276.84506 578.54376 276.84506Z" fill-rule="nonzero"/><path stroke="#757575" stroke-width="1.0" stroke-linecap="butt" d="M581.45 267.84506L454.76666 267.84506L425.92447 267.84506" fill-rule="nonzero"/><path fill="#9e9e9e" d="M427.92447 267.84506C427.92447 266.74048 427.02902 265.84506 425.92447 265.84506C424.8199 265.84506 423.92447 266.74048 423.92447 267.84506C423.92447 268.94962 424.8199 269.84506 425.92447 269.84506C427.02902 269.84506 427.92447 268.94962 427.92447 267.84506" fill-rule="nonzero"/><path fill="#757575" d="M19.70625 26.675Q19.70625 25.14375 20.471874 24.065624Q21.253124 22.9875 22.721874 22.9875Q24.065624 22.9875 24.940624 23.95625Q25.83125 24.909374 25.83125 26.784374Q25.83125 28.596874 24.940624 29.58125Q24.05 30.55 22.7375 30.55Q21.440624 30.55 20.565624 29.596874Q19.70625 28.628124 19.70625 26.675ZM22.76875 24.20625Q22.1125 24.20625 21.675 24.76875Q21.253124 25.33125 21.253124 26.846874Q21.253124 28.221874 21.690624 28.784374Q22.128124 29.346874 22.76875 29.346874Q23.440624 29.346874 23.8625 28.784374Q24.3 28.20625 24.3 26.70625Q24.3 25.315624 23.8625 24.76875Q23.425 24.20625 22.76875 24.20625ZM22.784374 38.08125L30.6125 22.9875L32.034374 22.9875L24.2375 38.08125L22.784374 38.08125ZM28.971874 34.190624Q28.971874 32.64375 29.7375 31.58125Q30.51875 30.503124 31.9875 30.503124Q33.33125 30.503124 34.20625 31.471874Q35.096874 32.425 35.096874 34.3Q35.096874 36.1125 34.20625 37.096874Q33.315624 38.08125 32.003124 38.08125Q30.70625 38.08125 29.83125 37.1125Q28.971874 36.128124 28.971874 34.190624ZM32.034374 31.721874Q31.378124 31.721874 30.940624 32.284374Q30.503124 32.846874 30.503124 34.3625Q30.503124 35.7375 30.940624 36.3Q31.378124 36.8625 32.034374 36.8625Q32.70625 36.8625 33.128124 36.3Q33.565624 35.7375 33.565624 34.221874Q33.565624 32.846874 33.128124 32.284374Q32.690624 31.721874 32.034374 31.721874ZM43.221874 32.3625Q43.221874 29.4875 44.815624 28.096874Q46.159374 26.940624 48.08125 26.940624Q50.221874 26.940624 51.565624 28.346874Q52.925 29.753124 52.925 32.221874Q52.925 34.221874 52.33125 35.378124Q51.7375 36.51875 50.58125 37.159374Q49.440624 37.784374 48.08125 37.784374Q45.89375 37.784374 44.55 36.39375Q43.221874 34.9875 43.221874 32.3625ZM45.01875 32.3625Q45.01875 34.3625 45.878124 35.346874Q46.753124 36.33125 48.08125 36.33125Q49.39375 36.33125 50.253124 35.346874Q51.128124 34.346874 51.128124 32.3Q51.128124 30.378124 50.253124 29.39375Q49.378124 28.39375 48.08125 28.39375Q46.753124 28.39375 45.878124 29.39375Q45.01875 30.378124 45.01875 32.3625ZM55.284374 37.55L55.284374 28.55L53.7375 28.55L53.7375 27.175L55.284374 27.175L55.284374 26.08125Q55.284374 25.034374 55.471874 24.51875Q55.721874 23.83125 56.3625 23.409374Q57.003124 22.9875 58.159374 22.9875Q58.909374 22.9875 59.8 23.159374L59.534374 24.690624Q58.9875 24.596874 58.503124 24.596874Q57.70625 24.596874 57.3625 24.940624Q57.034374 25.284374 57.034374 26.221874L57.034374 27.175L59.065624 27.175L59.065624 28.55L57.034374 28.55L57.034374 37.55L55.284374 37.55ZM68.78438 37.55L65.6125 27.175L67.425 27.175L69.08125 33.159374L69.69063 35.39375Q69.7375 35.221874 70.22188 33.253124L71.87813 27.175L73.69063 27.175L75.2375 33.190624L75.75313 35.175L76.34688 33.175L78.12813 27.175L79.83125 27.175L76.59688 37.55L74.76875 37.55L73.1125 31.33125L72.72188 29.565624L70.6125 37.55L68.78438 37.55ZM88.97188 34.20625L90.78438 34.440624Q90.3625 36.01875 89.19063 36.909374Q88.03438 37.784374 86.22188 37.784374Q83.95625 37.784374 82.6125 36.39375Q81.28438 34.9875 81.28438 32.45625Q81.28438 29.83125 82.62813 28.39375Q83.97188 26.940624 86.12813 26.940624Q88.20625 26.940624 89.51875 28.3625Q90.84688 29.76875 90.84688 32.346874Q90.84688 32.503124 90.83125 32.815624L83.09688 32.815624Q83.19063 34.51875 84.06563 35.425Q84.94063 36.33125 86.2375 36.33125Q87.20625 36.33125 87.87813 35.83125Q88.56563 35.315624 88.97188 34.20625ZM83.19063 31.3625L88.9875 31.3625Q88.87813 30.065624 88.33125 29.409374Q87.4875 28.39375 86.14375 28.39375Q84.94063 28.39375 84.1125 29.20625Q83.28438 30.003124 83.19063 31.3625ZM99.97188 34.20625L101.78438 34.440624Q101.3625 36.01875 100.19063 36.909374Q99.03438 37.784374 97.22188 37.784374Q94.95625 37.784374 93.6125 36.39375Q92.28438 34.9875 92.28438 32.45625Q92.28438 29.83125 93.62813 28.39375Q94.97188 26.940624 97.12813 26.940624Q99.20625 26.940624 100.51875 28.3625Q101.84688 29.76875 101.84688 32.346874Q101.84688 32.503124 101.83125 32.815624L94.09688 32.815624Q94.19063 34.51875 95.06563 35.425Q95.94063 36.33125 97.2375 36.33125Q98.20625 36.33125 98.87813 35.83125Q99.56563 35.315624 99.97188 34.20625ZM94.19063 31.3625L99.9875 31.3625Q99.87813 30.065624 99.33125 29.409374Q98.4875 28.39375 97.14375 28.39375Q95.94063 28.39375 95.1125 29.20625Q94.28438 30.003124 94.19063 31.3625ZM103.87813 37.55L103.87813 23.2375L105.64375 23.2375L105.64375 31.39375L109.8 27.175L112.06563 27.175L108.1125 31.01875L112.47188 37.55L110.3 37.55L106.87813 32.253124L105.64375 33.440624L105.64375 37.55L103.87813 37.55Z" fill-rule="nonzero"/></svg>